<?xml version="1.0" encoding="iso-8859-1"?>
<!-- Uploaded to: SVG Repo, www.svgrepo.com, Generator: SVG Repo Mixer Tools -->
<!DOCTYPE svg PUBLIC "-//W3C//DTD SVG 1.1//EN" "http://www.w3.org/Graphics/SVG/1.1/DTD/svg11.dtd">
<svg fill="#6c63ff " version="1.1" id="Capa_1" xmlns="http://www.w3.org/2000/svg" xmlns:xlink="http://www.w3.org/1999/xlink" 
	 width="80" height="80" viewBox="0 0 34 34" xml:space="preserve">
<g>
	<path d="M23.083,12.562V9.74l0.935,0.11V7.735L12.729,6.007L0,8.43v2.473l1.18-0.164v6.872h3.423v6.414l16.25,1.969l2.875-0.348
		v-8.232l5.107,0.016v7.596l2.373-0.287V14.701L32,14.74v-1.504L23.083,12.562z M21.934,10.717v2.475l-3.401,0.063v-2.884
		L21.934,10.717z M2.948,11.121l7.719-0.979v5.51l-7.719,0.256V11.121z M6.119,22.565V17.61h3.182v5.244L6.119,22.565z
		 M10.11,22.909v-5.301h2.618v-0.01h1.063v5.645L10.11,22.909z M14.567,23.346V17.6l4.287,0.001v6.137L14.567,23.346z"/>
</g>
</svg>